<svg width="65" height="64" viewBox="0 0 65 64" fill="none" xmlns="http://www.w3.org/2000/svg">
<g id="social" filter="url(#filter0_dd_342_1154)">
<circle id="Ellipse 17" cx="32.3506" cy="24" r="12" fill="white"/>
<path id="instagram" fill-rule="evenodd" clip-rule="evenodd" d="M28.6181 17C26.8135 17 25.3506 18.4629 25.3506 20.2675V27.8024C25.3506 29.607 26.8135 31.0699 28.6181 31.0699H36.153C37.9576 31.0699 39.4205 29.607 39.4205 27.8024V20.2675C39.4205 18.4629 37.9576 17 36.153 17H28.6181ZM24.3506 20.2675C24.3506 17.9106 26.2612 16 28.6181 16H36.153C38.5099 16 40.4205 17.9106 40.4205 20.2675V27.8024C40.4205 30.1593 38.5099 32.0699 36.153 32.0699H28.6181C26.2612 32.0699 24.3506 30.1593 24.3506 27.8024V20.2675ZM32.787 21.5154C32.264 21.4379 31.7298 21.5272 31.2604 21.7707C30.791 22.0143 30.4104 22.3996 30.1727 22.872C29.9349 23.3443 29.8522 23.8795 29.9362 24.4016C30.0202 24.9237 30.2667 25.406 30.6406 25.7799C31.0145 26.1538 31.4968 26.4003 32.0189 26.4843C32.5409 26.5683 33.0762 26.4855 33.5485 26.2478C34.0208 26.0101 34.4062 25.6294 34.6497 25.1601C34.8933 24.6907 34.9826 24.1565 34.905 23.6335C34.8259 23.0999 34.5773 22.606 34.1959 22.2246C33.8145 21.8432 33.3206 21.5945 32.787 21.5154ZM30.7998 20.8831C31.4559 20.5427 32.2026 20.4178 32.9337 20.5262C33.6795 20.6368 34.3699 20.9843 34.903 21.5175C35.4361 22.0506 35.7836 22.741 35.8942 23.4868C36.0026 24.2179 35.8778 24.9646 35.5373 25.6207C35.1969 26.2767 34.6583 26.8087 33.9981 27.141C33.3379 27.4733 32.5897 27.589 31.86 27.4716C31.1303 27.3541 30.4561 27.0096 29.9335 26.487C29.4109 25.9643 29.0663 25.2902 28.9489 24.5605C28.8315 23.8308 28.9471 23.0826 29.2794 22.4224C29.6117 21.7622 30.1438 21.2235 30.7998 20.8831ZM36.5298 19.3907C36.2536 19.3907 36.0298 19.6146 36.0298 19.8907C36.0298 20.1669 36.2536 20.3907 36.5298 20.3907H36.5384C36.8145 20.3907 37.0384 20.1669 37.0384 19.8907C37.0384 19.6146 36.8145 19.3907 36.5384 19.3907H36.5298Z" fill="black"/>
</g>
<defs>
<filter id="filter0_dd_342_1154" x="0.350586" y="0" width="64" height="64" filterUnits="userSpaceOnUse" color-interpolation-filters="sRGB">
<feFlood flood-opacity="0" result="BackgroundImageFix"/>
<feColorMatrix in="SourceAlpha" type="matrix" values="0 0 0 0 0 0 0 0 0 0 0 0 0 0 0 0 0 0 127 0" result="hardAlpha"/>
<feMorphology radius="4" operator="erode" in="SourceAlpha" result="effect1_dropShadow_342_1154"/>
<feOffset dy="8"/>
<feGaussianBlur stdDeviation="12"/>
<feColorMatrix type="matrix" values="0 0 0 0 0.0941176 0 0 0 0 0.152941 0 0 0 0 0.294118 0 0 0 0.08 0"/>
<feBlend mode="normal" in2="BackgroundImageFix" result="effect1_dropShadow_342_1154"/>
<feColorMatrix in="SourceAlpha" type="matrix" values="0 0 0 0 0 0 0 0 0 0 0 0 0 0 0 0 0 0 127 0" result="hardAlpha"/>
<feMorphology radius="6" operator="erode" in="SourceAlpha" result="effect2_dropShadow_342_1154"/>
<feOffset dy="6"/>
<feGaussianBlur stdDeviation="6"/>
<feColorMatrix type="matrix" values="0 0 0 0 0.0941176 0 0 0 0 0.152941 0 0 0 0 0.294118 0 0 0 0.12 0"/>
<feBlend mode="normal" in2="effect1_dropShadow_342_1154" result="effect2_dropShadow_342_1154"/>
<feBlend mode="normal" in="SourceGraphic" in2="effect2_dropShadow_342_1154" result="shape"/>
</filter>
</defs>
</svg>
