<svg width="65" height="64" viewBox="0 0 65 64" fill="none" xmlns="http://www.w3.org/2000/svg">
<g id="social" clip-path="url(#clip0_342_1151)" filter="url(#filter0_dd_342_1151)">
<circle id="Ellipse 17" cx="32.3506" cy="24" r="12" fill="white"/>
<path id="Vector" d="M40.072 25.6469L32.3356 31L24.5993 25.6469C24.4955 25.5743 24.4186 25.4723 24.3795 25.3555C24.3403 25.2388 24.341 25.1132 24.3813 24.9968L25.2676 22.3825L27.04 17.1885C27.0572 17.1461 27.0846 17.1083 27.1199 17.0778C27.1775 17.0278 27.2526 17 27.3306 17C27.4086 17 27.4837 17.0278 27.5413 17.0778C27.5786 17.1122 27.6061 17.155 27.6212 17.2023L29.3936 22.3825H35.2776L37.0501 17.1885C37.0673 17.1461 37.0947 17.1083 37.13 17.0778C37.1876 17.0278 37.2627 17 37.3407 17C37.4186 17 37.4938 17.0278 37.5513 17.0778C37.5887 17.1122 37.6162 17.155 37.6312 17.2023L39.4037 22.3963L40.3262 24.9968C40.3629 25.1168 40.358 25.2448 40.3122 25.3619C40.2664 25.4791 40.1822 25.579 40.072 25.6469V25.6469Z" stroke="black" stroke-linecap="round" stroke-linejoin="round"/>
</g>
<defs>
<filter id="filter0_dd_342_1151" x="0.350586" y="0" width="64" height="64" filterUnits="userSpaceOnUse" color-interpolation-filters="sRGB">
<feFlood flood-opacity="0" result="BackgroundImageFix"/>
<feColorMatrix in="SourceAlpha" type="matrix" values="0 0 0 0 0 0 0 0 0 0 0 0 0 0 0 0 0 0 127 0" result="hardAlpha"/>
<feMorphology radius="4" operator="erode" in="SourceAlpha" result="effect1_dropShadow_342_1151"/>
<feOffset dy="8"/>
<feGaussianBlur stdDeviation="12"/>
<feColorMatrix type="matrix" values="0 0 0 0 0.0941176 0 0 0 0 0.152941 0 0 0 0 0.294118 0 0 0 0.08 0"/>
<feBlend mode="normal" in2="BackgroundImageFix" result="effect1_dropShadow_342_1151"/>
<feColorMatrix in="SourceAlpha" type="matrix" values="0 0 0 0 0 0 0 0 0 0 0 0 0 0 0 0 0 0 127 0" result="hardAlpha"/>
<feMorphology radius="6" operator="erode" in="SourceAlpha" result="effect2_dropShadow_342_1151"/>
<feOffset dy="6"/>
<feGaussianBlur stdDeviation="6"/>
<feColorMatrix type="matrix" values="0 0 0 0 0.0941176 0 0 0 0 0.152941 0 0 0 0 0.294118 0 0 0 0.12 0"/>
<feBlend mode="normal" in2="effect1_dropShadow_342_1151" result="effect2_dropShadow_342_1151"/>
<feBlend mode="normal" in="SourceGraphic" in2="effect2_dropShadow_342_1151" result="shape"/>
</filter>
<clipPath id="clip0_342_1151">
<rect width="24" height="24" fill="white" transform="translate(20.3506 12)"/>
</clipPath>
</defs>
</svg>
